<svg xmlns="http://www.w3.org/2000/svg" viewBox="0 0 939.93 758.2"><defs><style>.cls-1{fill:#506bb3;}.cls-2{fill:#5978bb;}.cls-3{fill:#273c80;}.cls-4{fill:#11141f;}.cls-5{fill:#253169;}.cls-6{fill:#435aa9;}.cls-7{fill:#35509d;}.cls-8{fill:#202745;}.cls-9{fill:#41528a;}.cls-10{fill:#263b81;}.cls-11{fill:#1c2248;}.cls-12{fill:#161b34;}.cls-13{fill:#333e71;}.cls-14{fill:#293363;}.cls-15{fill:#181e33;}</style></defs><g id="Layer_1" data-name="Layer 1"><polygon class="cls-1" points="425.24 0.59 425.24 118.85 322.81 59.71 425.24 0.59"/><polygon class="cls-2" points="529.97 60.71 527.97 61.69 427.09 119.92 425.24 118.85 425.24 0.59 426.27 0 529.97 60.71"/><polygon class="cls-3" points="630.7 118.02 630.7 122.8 531.38 180.13 527.97 178.16 527.97 61.69 529.55 60.2 630.7 118.02"/><polygon class="cls-4" points="425.24 359.78 425.24 477.2 325.27 419.49 425.24 359.78"/><polygon class="cls-5" points="425.24 238.3 425.24 241.39 324.46 299.56 322.52 301.45 322.52 178.28 323.63 179.64 425.24 238.3"/><polygon class="cls-6" points="425.24 118.85 425.24 120.99 323.63 179.64 322.52 179 322.52 59.88 322.81 59.71 425.24 118.85"/><polygon class="cls-7" points="527.97 61.69 527.97 178.16 427.09 119.92 527.97 61.69"/><polygon class="cls-8" points="527.97 302.49 527.97 417.06 426.73 358.77 527.97 302.49"/><polygon class="cls-9" points="630.7 118.8 630.7 237.47 531.38 180.13 630.7 118.8"/><polygon class="cls-10" points="425.24 120.99 425.24 238.3 323.63 179.64 425.24 120.99"/><polygon class="cls-11" points="425.24 241.39 425.24 357.75 324.46 299.56 425.24 241.39"/><polygon class="cls-12" points="425.24 357.75 425.24 359.78 325.27 419.49 322.52 417.9 322.52 300.68 324.46 299.56 425.24 357.75"/><polygon class="cls-13" points="527.97 182.09 527.97 297.61 427.92 239.85 527.97 182.09"/><polygon class="cls-9" points="630.7 237.47 628.7 239.2 530.2 296.05 527.97 297.61 527.97 182.09 531.38 180.13 630.7 237.47"/><polygon class="cls-14" points="527.97 297.61 527.97 302.49 425.73 359.77 425.24 357.75 425.24 241.39 427.91 239.85 427.92 239.85 527.97 297.61"/><polygon class="cls-15" points="527.97 416.06 527.97 421.89 429.55 478.69 425.24 476.2 425.24 358.78 427.73 358.77 527.97 416.06"/></g><g id="Layer_2" data-name="Layer 2"><path class="cls-7" d="M61.82,698.76V585.87H79.28V698.76ZM69.88,655V635.48H94.12a7.78,7.78,0,0,0,6.42-3.14,13.37,13.37,0,0,0,2.45-8.43v-6.67c0-3.68-.81-6.57-2.42-8.7a7.69,7.69,0,0,0-6.45-3.18H69.88V585.87H94.06a27.19,27.19,0,0,1,14.3,3.61,24.22,24.22,0,0,1,9.27,10.33,36,36,0,0,1,3.29,16v9.63a35.55,35.55,0,0,1-3.26,15.8,23.64,23.64,0,0,1-9.3,10.21A27.62,27.62,0,0,1,94.06,655Z" transform="translate(-58.38 -40.25)"/><path class="cls-7" d="M155.9,698.76v-113h17.33v113Zm7.39-46.59V632.69H189a7.2,7.2,0,0,0,6-2.8,11.93,11.93,0,0,0,2.18-7.53V616a12.74,12.74,0,0,0-2.18-7.81,7.11,7.11,0,0,0-6-2.91H163.29V585.8h25.92a26.13,26.13,0,0,1,13.9,3.57,23.35,23.35,0,0,1,9,10.24,36.87,36.87,0,0,1,3.16,15.84v6.6a37.42,37.42,0,0,1-3.19,16.07,24.13,24.13,0,0,1-9,10.41,25.59,25.59,0,0,1-13.87,3.64Zm35.39,46.59-18.34-50.08,17.47-3.57,20.88,53.65Z" transform="translate(-58.38 -40.25)"/><path class="cls-7" d="M280.94,699.92a30.58,30.58,0,0,1-16.09-4.11A27.17,27.17,0,0,1,254.34,684a41.43,41.43,0,0,1-3.69-18.09V618.71a41.37,41.37,0,0,1,3.69-18.13,27.24,27.24,0,0,1,10.51-11.76,33.53,33.53,0,0,1,32.17,0,27.24,27.24,0,0,1,10.51,11.76,41.36,41.36,0,0,1,3.7,18.13v47.21a41.43,41.43,0,0,1-3.7,18.09A27.17,27.17,0,0,1,297,695.81,30.52,30.52,0,0,1,280.94,699.92Zm0-20.26a11.12,11.12,0,0,0,9-4q3.33-4,3.32-10.83V619.72q0-6.83-3.32-10.83a12.16,12.16,0,0,0-18,0q-3.36,4-3.36,10.83v45.11q0,6.82,3.36,10.83A11.14,11.14,0,0,0,280.94,679.66Z" transform="translate(-58.38 -40.25)"/><path class="cls-7" d="M362.39,699.92a27.47,27.47,0,0,1-13.8-3.53,25.29,25.29,0,0,1-9.77-10l13-13a15.06,15.06,0,0,0,4.73,4.77,10.64,10.64,0,0,0,5.68,1.67,7.94,7.94,0,0,0,6.75-3.18c1.58-2.12,2.38-5.18,2.38-9.16V585.87h17.8v82.92q0,14.75-7,22.94T362.39,699.92Z" transform="translate(-58.38 -40.25)"/><path class="cls-7" d="M428.53,698.76V585.87H446V698.76Zm7-93.25V585.87h47.34v19.64Zm0,46.9V632.92h42v19.49Zm0,46.35V679.11h47.34v19.65Z" transform="translate(-58.38 -40.25)"/><path class="cls-7" d="M546.52,699.92a29.09,29.09,0,0,1-15.85-4.15,26.37,26.37,0,0,1-10.07-12.08q-3.5-7.91-3.5-19.17V620.19q0-11.34,3.5-19.26a26.34,26.34,0,0,1,10.07-12.07,29.09,29.09,0,0,1,15.85-4.15q9.13,0,15.41,4.15t9.7,12.73q3.43,8.58,4.1,21.55h-18A40,40,0,0,0,556,613a13,13,0,0,0-3.73-5.94,8.65,8.65,0,0,0-5.71-1.94,10,10,0,0,0-8.36,3.92q-3.06,3.91-3.06,11.14v44.33q0,7.14,3.06,11.06a10,10,0,0,0,8.36,3.92,8.75,8.75,0,0,0,7.82-4.42q2.79-4.43,3.39-13.59h18q-.74,13-4.16,21.54t-9.67,12.74Q555.65,699.93,546.52,699.92Z" transform="translate(-58.38 -40.25)"/><path class="cls-7" d="M601.92,605.36V585.87h60.17v19.49Zm21.28,93.4V595.27h17.53V698.76Z" transform="translate(-58.38 -40.25)"/><path class="cls-7" d="M746.22,698.76V585.87h17.46V698.76Zm8.19-46.2V633.39h44.8v19.17Zm33.45,46.2V585.87h17.46V698.76Z" transform="translate(-58.38 -40.25)"/><path class="cls-7" d="M872.87,699.92q-14,0-21.69-9.24t-7.73-26v-78.8H861v79.35q0,6.9,3.09,10.75t8.8,3.84a10.83,10.83,0,0,0,8.86-3.84q3.16-3.84,3.16-10.75V585.87h17.53v78.8q0,16.77-7.79,26T872.87,699.92Z" transform="translate(-58.38 -40.25)"/><path class="cls-7" d="M939.21,698.76V585.87h17.46V698.76Zm8.8,0V679.5h22.83a9.59,9.59,0,0,0,7.29-2.71c1.72-1.82,2.58-4.35,2.58-7.61v-7.77q0-5.35-2.58-8.26t-7.42-2.92H948V631.06h22.5a8.51,8.51,0,0,0,6.75-2.72c1.58-1.81,2.38-4.4,2.38-7.76v-6.06c0-3-.81-5.4-2.42-7a9,9,0,0,0-6.71-2.44H948V585.87h23.7q12.09,0,18.71,7.07T997,612.81V619q0,8.68-4.33,14.32a19.94,19.94,0,0,1-12.32,7.26q8.52,1.32,13.23,7.41t4.7,15.8v7.84q0,13-6.62,20.07T973,698.76Z" transform="translate(-58.38 -40.25)"/><path class="cls-14" d="M73,798.45a13.39,13.39,0,0,1-7.89-2.3,14.35,14.35,0,0,1-5-6.65A28.5,28.5,0,0,1,58.38,779V740.31a28.67,28.67,0,0,1,1.73-10.57,14.35,14.35,0,0,1,5-6.65,13.39,13.39,0,0,1,7.89-2.3,13.44,13.44,0,0,1,7.94,2.3,14.25,14.25,0,0,1,5,6.65,28.73,28.73,0,0,1,1.71,10.52V743H81.4v-2.77a19.66,19.66,0,0,0-1-6.6,8.78,8.78,0,0,0-2.85-4.16A7.31,7.31,0,0,0,73,728.06a7.12,7.12,0,0,0-6.16,3.19q-2.24,3.19-2.23,9.06V779c0,3.87.74,6.88,2.23,9a7.58,7.58,0,0,0,12.37,0c1.46-2.12,2.19-5.13,2.19-9v-2.77h6.23V779a28.73,28.73,0,0,1-1.71,10.52,14.25,14.25,0,0,1-5,6.65A13.44,13.44,0,0,1,73,798.45Z" transform="translate(-58.38 -40.25)"/><path class="cls-14" d="M130,797.66V721.52h6.23v76.14Zm3.85-32.18v-7h11.64a8.1,8.1,0,0,0,6.6-2.83q2.35-2.82,2.36-7.95v-7.85q0-5.4-2.36-8.35a8,8,0,0,0-6.6-3H133.84v-7h11.21a16.56,16.56,0,0,1,8.46,2,13.08,13.08,0,0,1,5.32,5.88,21.84,21.84,0,0,1,1.84,9.37v8.9a23,23,0,0,1-1.84,9.63,13.51,13.51,0,0,1-5.32,6.07,16.18,16.18,0,0,1-8.46,2.09Zm21.38,32.18-8.35-34.53,5.53-2.41,10,36.94Z" transform="translate(-58.38 -40.25)"/><path class="cls-14" d="M205.46,797.66V721.57h6.23v76.09Zm4.28-69.07v-7h22.71v7Zm0,34.8v-7h20.55v7Zm0,34.27v-7h22.71v7Z" transform="translate(-58.38 -40.25)"/><path class="cls-14" d="M271.36,797.66l14.53-76.09h7.53L308,797.66H301L289.66,730l-11.38,67.66Zm8.09-18.47v-7h21.37v7Z" transform="translate(-58.38 -40.25)"/><path class="cls-14" d="M343,728.59v-7h30.54v7Zm12.16,69.07V727.8h6.23v69.86Z" transform="translate(-58.38 -40.25)"/><path class="cls-14" d="M415,797.66V721.57h6.23v76.09Zm4.29-69.07v-7H442v7Zm0,34.8v-7h20.55v7Zm0,34.27v-7H442v7Z" transform="translate(-58.38 -40.25)"/><path class="cls-14" d="M484.38,766.89h22.15v7H484.38Z" transform="translate(-58.38 -40.25)"/><path class="cls-14" d="M558.19,721.57v76.09H552V721.57Z" transform="translate(-58.38 -40.25)"/><path class="cls-14" d="M603.2,797.61v-76H609L629,784.06l-1,1.36V721.57h6.14v76h-5.93L608.3,735.13l1-1.36v63.84Z" transform="translate(-58.38 -40.25)"/><path class="cls-14" d="M693.8,798.45a15.27,15.27,0,0,1-8.43-2.25,14.14,14.14,0,0,1-5.35-6.52,26.26,26.26,0,0,1-1.84-10.38V739.94A26.35,26.35,0,0,1,680,729.55a14.16,14.16,0,0,1,5.35-6.51,17,17,0,0,1,16.89,0,14.17,14.17,0,0,1,5.32,6.51,26.17,26.17,0,0,1,1.84,10.39V779.3a26.09,26.09,0,0,1-1.84,10.38,14.14,14.14,0,0,1-5.32,6.52A15.25,15.25,0,0,1,693.8,798.45Zm0-7.38a8.44,8.44,0,0,0,7-3q2.44-3,2.44-8.4V739.58q0-5.45-2.44-8.43a9.56,9.56,0,0,0-13.87,0q-2.46,3-2.46,8.43v40.08q0,5.4,2.46,8.4A8.44,8.44,0,0,0,693.8,791.07Z" transform="translate(-58.38 -40.25)"/><path class="cls-14" d="M762.34,797.66l-12.72-76.09h6.58l10.34,67.51,10.34-67.51h6.58l-12.72,76.09Z" transform="translate(-58.38 -40.25)"/><path class="cls-14" d="M816.74,797.66l14.53-76.09h7.53l14.54,76.09h-6.92L835,730l-11.38,67.66Zm8.09-18.47v-7H846.2v7Z" transform="translate(-58.38 -40.25)"/><path class="cls-14" d="M888.35,728.59v-7h30.54v7Zm12.15,69.07V727.8h6.24v69.86Z" transform="translate(-58.38 -40.25)"/><path class="cls-14" d="M960.39,797.66V721.57h6.23v76.09Zm4.28-69.07v-7h22.72v7Zm0,34.8v-7h20.56v7Zm0,34.27v-7h22.72v7Z" transform="translate(-58.38 -40.25)"/></g></svg>